<svg xmlns="http://www.w3.org/2000/svg" xmlns:xlink="http://www.w3.org/1999/xlink" width="676" height="588" fill="none" xmlns:v="https://vecta.io/nano"><style><![CDATA[.B{fill:#5e6d7c}.C{fill:#0c3ee3}.D{fill:#0bac2f}.E{fill:#fff}.F{fill:#e6007a}.G{fill-rule:evenodd}.H{fill:#2f2f2f}.I{fill:#f0f3fb}.J{color-interpolation-filters:sRGB}.K{flood-opacity:0}]]></style><path d="M604 52H32c-11.0457 0-20 8.9543-20 20v484c0 11.046 8.9543 20 20 20h572c11.046 0 20-8.954 20-20V72c0-11.0457-8.954-20-20-20zM32 40C14.3269 40 0 54.3269 0 72v484c0 17.673 14.3269 32 32 32h572c17.673 0 32-14.327 32-32V72c0-17.6731-14.327-32-32-32H32z" fill="url(#E)" class="G"/><rect x="44" y="10" width="628" height="528" rx="30" class="E"/><mask id="A" class="E"><path d="M644 12H72c-11.0457 0-20 8.9543-20 20v484c0 11.046 8.9543 20 20 20h572c11.046 0 20-8.954 20-20V32c0-11.0457-8.954-20-20-20zM72 0C54.3269 0 40 14.3269 40 32v484c0 17.673 14.3269 32 32 32h572c17.673 0 32-14.327 32-32V32c0-17.6731-14.327-32-32-32H72z" class="G"/></mask><path d="M644 12H72c-11.0457 0-20 8.9543-20 20v484c0 11.046 8.9543 20 20 20h572c11.046 0 20-8.954 20-20V32c0-11.0457-8.954-20-20-20zM72 0C54.3269 0 40 14.3269 40 32v484c0 17.673 14.3269 32 32 32h572c17.673 0 32-14.327 32-32V32c0-17.6731-14.327-32-32-32H72z" fill="url(#F)" class="G"/><path d="M72 24h572V0H72v24zm-8 8c0-4.4183 3.5817-8 8-8V0C54.3269 0 40 14.3269 40 32h24zm0 484V32H40v484h24zm8 8c-4.4183 0-8-3.582-8-8H40c0 17.673 14.3269 32 32 32v-24zm572 0H72v24h572v-24zm8-8c0 4.418-3.582 8-8 8v24c17.673 0 32-14.327 32-32h-24zm0-484v484h24V32h-24zm-8-8c4.418 0 8 3.5817 8 8h24c0-17.6731-14.327-32-32-32v24zM52 32c0-11.0457 8.9543-20 20-20v-24C47.6995-12 28 7.69945 28 32h24zm0 484V32H28v484h24zm20 20c-11.0457 0-20-8.954-20-20H28c0 24.301 19.6995 44 44 44v-24zm572 0H72v24h572v-24zm20-20c0 11.046-8.954 20-20 20v24c24.301 0 44-19.699 44-44h-24zm0-484v484h24V32h-24zm-20-20c11.046 0 20 8.9543 20 20h24c0-24.30053-19.699-44-44-44v24zM72 12h572v-24H72v24z" fill="url(#G)" mask="url(#A)"/><g class="B"><path d="M75 52.52l4.128-11.2h1.856l4.096 11.2h-1.792l-.96-2.736h-4.576l-.96 2.736H75zm3.232-4.08h3.616l-1.808-5.104-1.808 5.104zm11.102 4.272c-.96 0-1.7173-.2987-2.272-.896-.544-.5973-.816-1.488-.816-2.672v-4.56h1.696v4.384c0 1.536.6293 2.304 1.888 2.304.6293 0 1.1467-.224 1.552-.672s.608-1.088.608-1.92v-4.096h1.696v7.936h-1.504l-.128-1.392c-.2453.4907-.608.88-1.088 1.168-.4693.2773-1.0133.416-1.632.416zm9.8375-.192c-.7787 0-1.3973-.1867-1.856-.56-.4587-.384-.688-1.0613-.688-2.032v-3.92h-1.36v-1.424h1.36l.208-2.016h1.488v2.016h2.2395v1.424h-2.2395v3.92c0 .4373.0907.7413.272.912.192.16.5173.24.976.24h.9115v1.44h-1.3115z"/><use xlink:href="#N"/><path d="M118.631 52.52v-4.128l-3.713-7.072h1.921l2.64 5.408 2.624-5.408h1.904l-3.681 7.072v4.128h-1.695zm7.673-9.44c-.32 0-.587-.096-.801-.288-.202-.2027-.303-.4533-.303-.752s.101-.544.303-.736c.214-.2027.481-.304.801-.304s.581.1013.784.304c.213.192.32.4373.32.736s-.107.5493-.32.752c-.203.192-.464.288-.784.288zm-.849 9.44v-7.936h1.697v7.936h-1.697zm7.647.192c-.778 0-1.472-.1707-2.08-.512-.597-.352-1.066-.8373-1.408-1.456s-.512-1.3387-.512-2.16c0-.832.166-1.5627.496-2.192.342-.6293.811-1.12 1.408-1.472.608-.352 1.312-.528 2.112-.528.779 0 1.456.176 2.032.528.576.3413 1.024.8 1.344 1.376s.48 1.2107.48 1.904l-.016.352-.016.4h-6.176c.054.768.304 1.3547.752 1.76.459.3947.987.592 1.584.592.48 0 .88-.1067 1.2-.32.331-.224.576-.5227.736-.896h1.696c-.213.7467-.64 1.3707-1.28 1.872-.629.5013-1.413.752-2.352.752zm0-6.928c-.565 0-1.066.1707-1.504.512-.437.3307-.704.832-.8 1.504h4.48c-.032-.6187-.25-1.1093-.656-1.472s-.912-.544-1.52-.544zm5.632 6.736V41h1.696v11.52h-1.696zm7.46.192c-.768 0-1.445-.1813-2.032-.544s-1.045-.8587-1.376-1.488-.496-1.344-.496-2.144.165-1.5093.496-2.128c.331-.6293.789-1.12 1.376-1.472.597-.3627 1.28-.544 2.048-.544.629 0 1.179.1227 1.648.368.48.2453.853.592 1.12 1.04V41h1.696v11.52h-1.52l-.176-1.232c-.256.3733-.608.704-1.056.992s-1.024.432-1.728.432zm.304-1.472c.725 0 1.317-.2507 1.776-.752.469-.5013.704-1.1467.704-1.936 0-.8-.235-1.4453-.704-1.936-.459-.5013-1.051-.752-1.776-.752s-1.323.2507-1.792.752c-.469.4907-.704 1.136-.704 1.936 0 .5227.107.9867.32 1.392s.507.7253.88.96c.384.224.816.336 1.296.336zm9.69 1.28l4.127-11.2h1.857l4.096 11.2h-1.792l-.96-2.736h-4.577l-.96 2.736h-1.791zm3.232-4.08h3.615l-1.807-5.104-1.808 5.104zm11.699 4.272c-.779 0-1.477-.176-2.096-.528-.608-.352-1.088-.8373-1.44-1.456-.341-.6293-.512-1.3547-.512-2.176s.171-1.5413.512-2.16c.352-.6293.832-1.12 1.44-1.472.619-.352 1.317-.528 2.096-.528.981 0 1.803.256 2.464.768.672.512 1.104 1.2053 1.296 2.08h-1.776c-.107-.4373-.341-.7787-.704-1.024s-.789-.368-1.28-.368c-.416 0-.8.1067-1.152.32-.352.2027-.635.5067-.848.912-.213.3947-.32.8853-.32 1.472s.107 1.0827.32 1.488c.213.3947.496.6987.848.912s.736.32 1.152.32c.491 0 .917-.1227 1.28-.368s.597-.592.704-1.04h1.776c-.181.8533-.608 1.5413-1.28 2.064s-1.499.784-2.48.784zm9.36 0c-.779 0-1.478-.176-2.097-.528-.608-.352-1.088-.8373-1.44-1.456-.341-.6293-.512-1.3547-.512-2.176s.171-1.5413.512-2.16c.352-.6293.832-1.12 1.44-1.472.619-.352 1.318-.528 2.097-.528.981 0 1.802.256 2.463.768.672.512 1.105 1.2053 1.297 2.08h-1.776c-.107-.4373-.342-.7787-.705-1.024s-.789-.368-1.279-.368c-.417 0-.801.1067-1.153.32-.351.2027-.634.5067-.847.912-.214.3947-.32.8853-.32 1.472s.106 1.0827.32 1.488c.213.3947.496.6987.847.912s.736.32 1.153.32c.49 0 .917-.1227 1.279-.368s.598-.592.705-1.04h1.776c-.182.8533-.609 1.5413-1.281 2.064s-1.498.784-2.479.784z"/><use xlink:href="#N" x="83.969"/><path d="M198.584 52.712c-.96 0-1.717-.2987-2.272-.896-.544-.5973-.816-1.488-.816-2.672v-4.56h1.696v4.384c0 1.536.629 2.304 1.888 2.304.629 0 1.147-.224 1.552-.672s.608-1.088.608-1.92v-4.096h1.696v7.936h-1.504l-.128-1.392c-.245.4907-.608.88-1.088 1.168-.469.2773-1.013.416-1.632.416zm6.51-.192v-7.936h1.504l.127 1.392c.246-.4907.603-.8747 1.073-1.152.479-.288 1.029-.432 1.647-.432.961 0 1.712.2987 2.256.896.555.5973.832 1.488.832 2.672v4.56h-1.679v-4.384c0-1.536-.63-2.304-1.889-2.304-.629 0-1.151.224-1.567.672-.406.448-.608 1.088-.608 1.92v4.096h-1.696z"/><use xlink:href="#O"/></g><g class="H"><path d="M80.304 89.8079v-1.848c-1.552-.176-2.816-.72-3.792-1.632s-1.48-2.136-1.512-3.672h3.24c.032.64.224 1.2.576 1.68.368.48.864.808 1.488.984v-5.064l-.456-.144-.456-.144c-1.296-.448-2.288-1.024-2.976-1.728-.672-.704-1.008-1.64-1.008-2.808-.016-1.376.432-2.48 1.344-3.312.912-.848 2.096-1.336 3.552-1.464v-1.944h1.608v1.968c1.44.144 2.6.648 3.48 1.512.896.848 1.368 1.944 1.416 3.288H83.52c-.016-.464-.168-.888-.456-1.272-.272-.4-.656-.68-1.152-.84v4.464l.384.144c.128.032.256.072.384.12.832.288 1.592.624 2.28 1.008s1.24.896 1.656 1.536c.416.624.624 1.432.624 2.424 0 .832-.208 1.608-.624 2.328-.4.72-1 1.32-1.8 1.8-.784.464-1.752.728-2.904.792v1.824h-1.608zm-1.68-14.592c0 .512.152.928.456 1.248.304.304.712.568 1.224.792v-3.984c-.496.096-.904.312-1.224.648-.304.336-.456.768-.456 1.296zm5.352 8.064c0-.64-.192-1.144-.576-1.512s-.88-.68-1.488-.936v4.56c.64-.096 1.144-.328 1.512-.696s.552-.84.552-1.416zm7.7683 4.44v-13.296l-2.76.648v-2.352l4.056-1.8h1.896v16.8h-3.192zm13.3377.288c-1.552 0-2.88-.36-3.984-1.08-1.1043-.736-1.9602-1.752-2.5682-3.048-.592-1.312-.888-2.832-.888-4.56 0-1.712.296-3.224.888-4.536.608-1.312 1.4639-2.328 2.5682-3.048 1.104-.736 2.432-1.104 3.984-1.104s2.88.368 3.984 1.104c1.104.72 1.952 1.736 2.544 3.048.608 1.312.912 2.824.912 4.536 0 1.728-.304 3.248-.912 4.56-.592 1.296-1.44 2.312-2.544 3.048-1.104.72-2.432 1.08-3.984 1.08zm0-2.76c1.264 0 2.296-.528 3.096-1.584s1.2-2.504 1.2-4.344-.4-3.288-1.2-4.344-1.832-1.584-3.096-1.584c-1.28 0-2.32.528-3.12 1.584-.784 1.056-1.176 2.504-1.176 4.344s.392 3.288 1.176 4.344c.8 1.056 1.84 1.584 3.12 1.584z"/><use xlink:href="#P"/><path d="M130.249 90.5039l1.368-5.976h2.976l-2.328 5.976h-2.016z"/><use xlink:href="#Q"/><use xlink:href="#Q" x="15.094"/><path d="M173.215 88.0079c-1.152 0-2.191-.2-3.119-.6-.928-.416-1.672-1-2.232-1.752-.544-.752-.816-1.624-.816-2.616 0-1.024.264-1.92.792-2.688.543-.768 1.256-1.32 2.136-1.656-.768-.336-1.376-.816-1.824-1.44-.448-.64-.673-1.352-.673-2.136 0-.8.217-1.536.649-2.208.432-.688 1.072-1.24 1.92-1.656.863-.416 1.919-.624 3.167-.624s2.297.208 3.145.624 1.488.968 1.92 1.656c.432.672.648 1.408.648 2.208 0 .768-.232 1.48-.696 2.136-.448.64-1.048 1.12-1.8 1.44.895.336 1.608.888 2.136 1.656s.792 1.664.792 2.688c0 .992-.272 1.864-.816 2.616s-1.288 1.336-2.232 1.752c-.929.4-1.96.6-3.097.6zm0-10.224c.833 0 1.488-.216 1.969-.648s.72-.984.72-1.656c0-.736-.24-1.312-.72-1.728-.464-.416-1.121-.624-1.969-.624-.863 0-1.527.208-1.991.624s-.696.992-.696 1.728c0 .688.232 1.248.696 1.68.48.416 1.144.624 1.991.624zm0 7.656c1.025 0 1.801-.248 2.329-.744.528-.512.792-1.152.792-1.92 0-.848-.28-1.512-.84-1.992-.544-.48-1.305-.72-2.281-.72s-1.751.24-2.327.72c-.56.48-.84 1.144-.84 1.992 0 .768.264 1.408.792 1.92.543.496 1.335.744 2.375.744z"/><use xlink:href="#R"/><use xlink:href="#S"/><use xlink:href="#T"/></g><g class="D"><use xlink:href="#U"/><path d="M237.572 87.3119v-1.216l2.08-1.744c.661-.5866 1.248-1.1626 1.76-1.728.522-.576.933-1.136 1.232-1.68.298-.5546.448-1.088.448-1.6 0-.3413-.059-.6613-.176-.96-.118-.3093-.31-.5546-.576-.736-.267-.192-.624-.288-1.072-.288-.672 0-1.179.2134-1.52.64-.331.4267-.491.9387-.48 1.536h-1.648c.01-.7893.176-1.4506.496-1.984.33-.5333.768-.9386 1.312-1.216.554-.2773 1.178-.416 1.872-.416 1.056 0 1.898.2987 2.528.896.64.5867.96 1.408.96 2.464 0 .6294-.155 1.2534-.464 1.872-.299.6187-.694 1.216-1.184 1.792-.48.5654-.998 1.0987-1.552 1.6l-1.584 1.36h5.12v1.408h-7.552zm9.988.096c-.32 0-.587-.1013-.8-.304-.203-.2133-.304-.464-.304-.752 0-.2986.101-.5493.304-.752.213-.2133.48-.32.8-.32s.581.1067.784.32c.203.2027.304.4534.304.752 0 .288-.101.5387-.304.752-.203.2027-.464.304-.784.304zm6.445.096c-.726 0-1.387-.128-1.984-.384-.587-.2666-1.056-.6666-1.408-1.2s-.539-1.2-.56-2h1.68c.021.5974.224 1.104.608 1.52.394.4054.949.608 1.664.608.682 0 1.205-.1866 1.568-.56.362-.384.544-.8586.544-1.424 0-.6826-.246-1.1893-.736-1.52-.48-.3306-1.072-.496-1.776-.496h-.832v-1.408h.848c.629 0 1.136-.1493 1.52-.448.394-.2986.592-.72.592-1.264 0-.4586-.155-.832-.464-1.12-.299-.288-.726-.432-1.28-.432-.576 0-1.03.1707-1.36.512-.331.3307-.512.7467-.544 1.248h-1.68c.021-.6506.181-1.216.48-1.696.309-.48.73-.8533 1.264-1.12s1.146-.4 1.84-.4c.746 0 1.37.1334 1.872.4.512.256.896.608 1.152 1.056.266.4374.4.9174.4 1.44 0 .5974-.166 1.12-.496 1.568s-.774.7467-1.328.896c.64.1387 1.168.4534 1.584.944.416.48.624 1.104.624 1.872 0 .6187-.144 1.1894-.432 1.712-.288.512-.715.9227-1.28 1.232s-1.259.464-2.08.464zm7.841-6.048c-.501 0-.954-.112-1.36-.336-.394-.224-.709-.5386-.944-.944-.234-.416-.352-.912-.352-1.488 0-.5653.118-1.0506.352-1.456.235-.416.555-.736.96-.96s.859-.336 1.36-.336c.491 0 .934.112 1.328.336.406.224.726.544.96.96.235.4054.352.8907.352 1.456 0 .576-.117 1.072-.352 1.488-.234.4054-.554.72-.96.944-.394.224-.842.336-1.344.336zm-.8 5.856l6.416-11.2h1.664l-6.4 11.2h-1.68zm.8-7.072c.342 0 .635-.128.88-.384.256-.2666.384-.656.384-1.168s-.122-.896-.368-1.152c-.245-.2666-.544-.4-.896-.4-.341 0-.64.1334-.896.4-.256.256-.384.64-.384 1.152s.123.9014.368 1.168c.256.256.56.384.912.384zm6.576 7.264c-.501 0-.954-.112-1.36-.336-.394-.224-.709-.5386-.944-.944-.234-.416-.352-.912-.352-1.488 0-.5653.118-1.056.352-1.472s.555-.736.96-.96.859-.336 1.36-.336c.491 0 .934.112 1.328.336.406.224.726.544.96.96s.352.9067.352 1.472c0 .576-.117 1.072-.352 1.488-.234.4054-.554.72-.96.944-.394.224-.842.336-1.344.336zm0-1.232c.342 0 .635-.128.88-.384.256-.256.384-.64.384-1.152s-.122-.896-.368-1.152c-.245-.2666-.544-.4-.896-.4-.341 0-.64.1334-.896.4-.256.256-.384.64-.384 1.152s.123.896.368 1.152c.256.256.56.384.912.384z"/></g><g class="B"><path d="M377.391 52.52v-9.824h-3.312V41.32h8.304v1.376h-3.296v9.824h-1.696zm8.789.192c-.757 0-1.44-.1707-2.048-.512-.597-.352-1.072-.8373-1.424-1.456-.352-.6293-.528-1.36-.528-2.192s.176-1.5573.528-2.176c.363-.6293.848-1.1147 1.456-1.456.608-.352 1.286-.528 2.032-.528.758 0 1.435.176 2.032.528.608.3413 1.088.8267 1.44 1.456.363.6187.544 1.344.544 2.176s-.181 1.5627-.544 2.192c-.352.6187-.832 1.104-1.44 1.456-.608.3413-1.29.512-2.048.512zm0-1.456c.406 0 .779-.1013 1.12-.304.352-.2027.635-.5013.848-.896.214-.4053.32-.9067.32-1.504s-.106-1.0933-.32-1.488c-.202-.4053-.48-.7093-.832-.912-.341-.2027-.714-.304-1.12-.304s-.784.1013-1.136.304c-.341.2027-.618.5067-.832.912-.213.3947-.32.8907-.32 1.488s.107 1.0987.32 1.504c.214.3947.491.6933.832.896s.715.304 1.12.304z"/><use xlink:href="#O" x="177.203"/><use xlink:href="#V"/><path d="M407.14 52.52V41h1.696v11.52h-1.696zm7.939 0v-11.2h7.12v1.376h-5.424v3.488h4.944v1.344h-4.944v3.616h5.424v1.376h-7.12z"/><use xlink:href="#V" x="25.953"/><path d="M433.093 52.52v-7.936h1.52l.144 1.504c.278-.5227.662-.9333 1.152-1.232.502-.3093 1.104-.464 1.808-.464v1.776h-.464c-.469 0-.89.08-1.264.24-.362.1493-.656.4107-.88.784-.213.3627-.32.8693-.32 1.52v3.808h-1.696zm6.078 0v-7.936h1.504l.128 1.392c.246-.4907.603-.8747 1.072-1.152.48-.288 1.03-.432 1.648-.432.96 0 1.712.2987 2.256.896.555.5973.832 1.488.832 2.672v4.56h-1.68v-4.384c0-1.536-.629-2.304-1.888-2.304-.629 0-1.152.224-1.568.672-.405.448-.608 1.088-.608 1.92v4.096h-1.696zm13.15.192c-.779 0-1.472-.1707-2.08-.512-.597-.352-1.067-.8373-1.408-1.456s-.512-1.3387-.512-2.16c0-.832.165-1.5627.496-2.192.341-.6293.811-1.12 1.408-1.472.608-.352 1.312-.528 2.112-.528.779 0 1.456.176 2.032.528.576.3413 1.024.8 1.344 1.376s.48 1.2107.48 1.904l-.016.352-.016.4h-6.176c.053.768.304 1.3547.752 1.76.459.3947.987.592 1.584.592.48 0 .88-.1067 1.2-.32.331-.224.576-.5227.736-.896h1.696c-.213.7467-.64 1.3707-1.28 1.872-.629.5013-1.413.752-2.352.752zm0-6.928c-.565 0-1.067.1707-1.504.512-.437.3307-.704.832-.8 1.504h4.48c-.032-.6187-.251-1.1093-.656-1.472s-.912-.544-1.52-.544zm9.248 6.928c-.768 0-1.446-.1813-2.032-.544s-1.046-.8587-1.376-1.488-.496-1.344-.496-2.144.165-1.5093.496-2.128c.33-.6293.789-1.12 1.376-1.472.597-.3627 1.28-.544 2.048-.544.629 0 1.178.1227 1.648.368.48.2453.853.592 1.12 1.04V41h1.696v11.52h-1.52l-.176-1.232c-.256.3733-.608.704-1.056.992s-1.024.432-1.728.432zm.304-1.472c.725 0 1.317-.2507 1.776-.752.469-.5013.704-1.1467.704-1.936 0-.8-.235-1.4453-.704-1.936-.459-.5013-1.051-.752-1.776-.752s-1.323.2507-1.792.752c-.47.4907-.704 1.136-.704 1.936 0 .5227.106.9867.32 1.392s.506.7253.88.96c.384.224.816.336 1.296.336z"/></g><g class="H"><path d="M379.383 89.8079v-1.848c-1.552-.176-2.816-.72-3.792-1.632s-1.48-2.136-1.512-3.672h3.24c.032.64.224 1.2.576 1.68.368.48.864.808 1.488.984v-5.064l-.456-.144-.456-.144c-1.296-.448-2.288-1.024-2.976-1.728-.672-.704-1.008-1.64-1.008-2.808-.016-1.376.432-2.48 1.344-3.312.912-.848 2.096-1.336 3.552-1.464v-1.944h1.608v1.968c1.44.144 2.6.648 3.48 1.512.896.848 1.368 1.944 1.416 3.288h-3.288c-.016-.464-.168-.888-.456-1.272-.272-.4-.656-.68-1.152-.84v4.464l.384.144c.128.032.256.072.384.12.832.288 1.592.624 2.28 1.008s1.24.896 1.656 1.536c.416.624.624 1.432.624 2.424 0 .832-.208 1.608-.624 2.328-.4.72-1 1.32-1.8 1.8-.784.464-1.752.728-2.904.792v1.824h-1.608zm-1.68-14.592c0 .512.152.928.456 1.248.304.304.712.568 1.224.792v-3.984c-.496.096-.904.312-1.224.648-.304.336-.456.768-.456 1.296zm5.352 8.064c0-.64-.192-1.144-.576-1.512s-.88-.68-1.488-.936v4.56c.64-.096 1.144-.328 1.512-.696s.552-.84.552-1.416zm7.768 4.44v-13.296l-2.76.648v-2.352l4.056-1.8h1.896v16.8h-3.192z"/><use xlink:href="#P" x="282.039"/><path d="M412.289 90.5039l1.368-5.976h2.976l-2.328 5.976h-2.016z"/><use xlink:href="#Q" x="282.04"/><use xlink:href="#Q" x="297.133"/><use xlink:href="#Q" x="312.227"/><use xlink:href="#R" x="282.04"/><use xlink:href="#S" x="282.039"/><use xlink:href="#T" x="282.039"/></g><g class="D"><use xlink:href="#U" x="282.04"/><path d="M523.612 87.5039c-.747 0-1.424-.1333-2.032-.4-.598-.2773-1.078-.6613-1.44-1.152-.352-.4906-.528-1.0666-.528-1.728 0-.672.186-1.2746.56-1.808.384-.5333.89-.896 1.52-1.088-.566-.224-1.003-.5493-1.312-.976-.31-.4373-.464-.9173-.464-1.44 0-.544.144-1.04.432-1.488.288-.4586.704-.8213 1.248-1.088.554-.2773 1.226-.416 2.016-.416s1.456.1387 2 .416c.554.2667.976.6294 1.264 1.088.288.448.432.944.432 1.488 0 .512-.16.992-.48 1.44-.31.4374-.747.7627-1.312.976.629.2027 1.13.5707 1.504 1.104.384.5227.576 1.12.576 1.792 0 .6614-.176 1.2374-.528 1.728s-.832.8747-1.44 1.152c-.598.2667-1.27.4-2.016.4zm0-6.72c.618 0 1.104-.16 1.456-.48.362-.32.544-.7306.544-1.232 0-.5653-.176-.9973-.528-1.296s-.843-.448-1.472-.448-1.12.1494-1.472.448-.528.7307-.528 1.296c0 .5014.176.912.528 1.232s.842.48 1.472.48zm0 5.28c.768 0 1.344-.1813 1.728-.544.384-.3733.576-.848.576-1.424 0-.64-.208-1.1306-.624-1.472-.406-.352-.966-.528-1.68-.528s-1.28.176-1.696.528c-.416.3414-.624.832-.624 1.472 0 .576.192 1.0507.576 1.424.394.3627.976.544 1.744.544zm6.706 1.344c-.32 0-.587-.1013-.8-.304-.203-.2133-.304-.464-.304-.752 0-.2986.101-.5493.304-.752.213-.2133.48-.32.8-.32s.581.1067.784.32c.202.2027.304.4534.304.752 0 .288-.102.5387-.304.752-.203.2027-.464.304-.784.304zm6.444.096c-.725 0-1.386-.128-1.984-.384-.586-.2666-1.056-.6666-1.408-1.2s-.538-1.2-.56-2h1.68c.022.5974.224 1.104.608 1.52.395.4054.95.608 1.664.608.683 0 1.206-.1866 1.568-.56.363-.384.544-.8586.544-1.424 0-.6826-.245-1.1893-.736-1.52-.48-.3306-1.072-.496-1.776-.496h-.832v-1.408h.848c.63 0 1.136-.1493 1.52-.448.395-.2986.592-.72.592-1.264 0-.4586-.154-.832-.464-1.12-.298-.288-.725-.432-1.28-.432-.576 0-1.029.1707-1.36.512-.33.3307-.512.7467-.544 1.248h-1.68c.022-.6506.182-1.216.48-1.696.31-.48.731-.8533 1.264-1.12s1.147-.4 1.84-.4c.747 0 1.371.1334 1.872.4.512.256.896.608 1.152 1.056.267.4374.4.9174.4 1.44 0 .5974-.165 1.12-.496 1.568s-.773.7467-1.328.896c.64.1387 1.168.4534 1.584.944.416.48.624 1.104.624 1.872 0 .6187-.144 1.1894-.432 1.712-.288.512-.714.9227-1.28 1.232s-1.258.464-2.08.464zm7.842-6.048c-.501 0-.955-.112-1.36-.336-.395-.224-.709-.5386-.944-.944-.235-.416-.352-.912-.352-1.488 0-.5653.117-1.0506.352-1.456.235-.416.555-.736.96-.96s.859-.336 1.36-.336c.491 0 .933.112 1.328.336.405.224.725.544.96.96.235.4054.352.8907.352 1.456 0 .576-.117 1.072-.352 1.488-.235.4054-.555.72-.96.944-.395.224-.843.336-1.344.336zm-.8 5.856l6.416-11.2h1.664l-6.4 11.2h-1.68zm.8-7.072c.341 0 .635-.128.88-.384.256-.2666.384-.656.384-1.168s-.123-.896-.368-1.152c-.245-.2666-.544-.4-.896-.4-.341 0-.64.1334-.896.4-.256.256-.384.64-.384 1.152s.123.9014.368 1.168c.256.256.56.384.912.384zm6.576 7.264c-.501 0-.955-.112-1.36-.336-.395-.224-.709-.5386-.944-.944-.235-.416-.352-.912-.352-1.488 0-.5653.117-1.056.352-1.472s.555-.736.96-.96.859-.336 1.36-.336c.491 0 .933.112 1.328.336.405.224.725.544.96.96s.352.9067.352 1.472c0 .576-.117 1.072-.352 1.488-.235.4054-.555.72-.96.944-.395.224-.843.336-1.344.336zm0-1.232c.341 0 .635-.128.88-.384.256-.256.384-.64.384-1.152s-.123-.896-.368-1.152c-.245-.2666-.544-.4-.896-.4-.341 0-.64.1334-.896.4-.256.256-.384.64-.384 1.152s.123.896.368 1.152c.256.256.56.384.912.384z"/></g><path d="M243.39 210.388c-63.701 49.778-115.482-6.465-166.89 33.616h564v-128c-36.135 40.081-125.168 32.323-178.066 71.758s-119.359-55.27-219.044 22.626z" fill="url(#H)"/><g class="G"><path d="M640.667 114.889c.616.554.665 1.503.111 2.118-9.239 10.264-21.802 17.402-36.147 22.971s-30.584 9.608-47.242 13.606l-3.893.932c-32.248 7.718-65.638 15.709-90.737 34.448-13.624 10.171-28.119 11.651-43.565 9.501-10.274-1.43-21.134-4.501-32.495-7.713l-17.046-4.646c-17.742-4.486-36.808-7.74-57.581-5.082-20.752 2.654-43.313 11.222-68.005 30.545-32.283 25.265-61.62 23.593-89.003 20.755l-4.319-.454c-25.747-2.733-49.533-5.258-73.3218 13.316-.6529.51-1.5956.394-2.1054-.259s-.3938-1.596.2591-2.105c24.7691-19.341 49.7071-16.683 75.2971-13.957l4.499.475c27.203 2.819 55.521 4.38 86.845-20.133 25.077-19.625 48.137-28.43 69.473-31.159 21.316-2.727 40.805.626 58.698 5.149 5.998 1.517 11.786 3.155 17.396 4.742 11.231 3.177 21.75 6.153 31.822 7.555 14.963 2.082 28.571.611 41.357-8.934 25.609-19.119 59.553-27.239 91.604-34.907l4.121-.986c16.68-4.003 32.731-8.002 46.856-13.486s26.202-12.404 35.003-22.181c.555-.615 1.503-.665 2.119-.111z" fill="url(#I)"/><path d="M485.5 244.004v-129h1v129h-1z" fill="#d7d9e1"/></g><path d="M491.5 172.504c0 3.037-2.462 5.5-5.5 5.5s-5.5-2.463-5.5-5.5 2.462-5.5 5.5-5.5 5.5 2.462 5.5 5.5z" fill="#5b40f8"/><g class="B"><path d="M449.144 259.004l3.612-9.8h1.246l3.598 9.8h-1.246l-.896-2.52h-4.172l-.91 2.52h-1.232zm2.492-3.472h3.472l-1.736-4.844-1.736 4.844zm7.35 6.552V252.06h1.064l.112 1.148c.224-.336.542-.639.952-.91.42-.271.952-.406 1.596-.406.691 0 1.293.159 1.806.476s.91.751 1.19 1.302c.29.551.434 1.176.434 1.876s-.144 1.325-.434 1.876c-.28.541-.681.971-1.204 1.288-.513.308-1.115.462-1.806.462-.569 0-1.078-.117-1.526-.35-.438-.233-.774-.56-1.008-.98v4.242h-1.176zm3.584-3.934c.467 0 .878-.107 1.232-.322.355-.224.635-.532.84-.924s.308-.849.308-1.372-.102-.98-.308-1.372-.485-.695-.84-.91c-.354-.224-.765-.336-1.232-.336s-.877.112-1.232.336c-.354.215-.634.518-.84.91s-.308.849-.308 1.372.103.98.308 1.372.486.7.84.924c.355.215.766.322 1.232.322zm5.207.854v-6.944h1.064l.098 1.33c.215-.457.542-.821.98-1.092s.98-.406 1.624-.406v1.232h-.322c-.41 0-.788.075-1.134.224-.345.14-.62.383-.826.728s-.308.821-.308 1.428v3.5h-1.176zm8.707 0v-.826l1.876-1.582c.598-.541 1.125-1.073 1.582-1.596.467-.523.831-1.036 1.092-1.54.271-.504.406-.989.406-1.456 0-.345-.06-.667-.182-.966-.112-.299-.298-.537-.56-.714-.261-.187-.616-.28-1.064-.28-.429 0-.788.098-1.078.294-.289.187-.508.439-.658.756-.14.317-.21.658-.21 1.022h-1.134c0-.644.136-1.195.406-1.652.271-.467.64-.821 1.106-1.064s.994-.364 1.582-.364c.868 0 1.578.247 2.128.742.56.485.84 1.213.84 2.184 0 .579-.144 1.153-.434 1.722-.289.56-.658 1.106-1.106 1.638-.448.523-.928 1.013-1.442 1.47l-1.414 1.232h4.732v.98h-6.468zm7.158 1.666l.812-3.094h1.218l-1.218 3.094h-.812z"/><use xlink:href="#W"/><path d="M502.541 259.172c-.868 0-1.62-.21-2.254-.63-.626-.429-1.106-1.022-1.442-1.778-.336-.765-.504-1.652-.504-2.66s.168-1.89.504-2.646c.336-.765.816-1.358 1.442-1.778.634-.429 1.386-.644 2.254-.644s1.614.215 2.24.644c.625.42 1.106 1.013 1.442 1.778.336.756.504 1.638.504 2.646s-.168 1.895-.504 2.66c-.336.756-.817 1.349-1.442 1.778-.626.42-1.372.63-2.24.63zm0-1.036c.569 0 1.078-.159 1.526-.476.457-.327.812-.789 1.064-1.386.261-.607.392-1.33.392-2.17s-.131-1.559-.392-2.156c-.252-.597-.607-1.055-1.064-1.372-.448-.327-.957-.49-1.526-.49-.579 0-1.092.163-1.54.49-.448.317-.803.775-1.064 1.372s-.392 1.316-.392 2.156.13 1.563.392 2.17c.261.597.616 1.059 1.064 1.386.448.317.961.476 1.54.476zm5.594.868v-.826l1.876-1.582c.597-.541 1.125-1.073 1.582-1.596.467-.523.831-1.036 1.092-1.54.271-.504.406-.989.406-1.456 0-.345-.061-.667-.182-.966-.112-.299-.299-.537-.56-.714-.261-.187-.616-.28-1.064-.28-.429 0-.789.098-1.078.294-.289.187-.509.439-.658.756-.14.317-.21.658-.21 1.022h-1.134c0-.644.135-1.195.406-1.652.271-.467.639-.821 1.106-1.064s.994-.364 1.582-.364c.868 0 1.577.247 2.128.742.56.485.84 1.213.84 2.184 0 .579-.145 1.153-.434 1.722-.289.56-.658 1.106-1.106 1.638a15.2778 15.2778 0 0 1-1.442 1.47l-1.414 1.232h4.732v.98h-6.468z"/><use xlink:href="#W" x="25.457"/></g><g clip-path="url(#K)"><g filter="url(#B)"><rect x="79" y="282.084" width="192.012" height="202.832" rx="12" class="E"/><path d="M163.124 315.884v-9.8h6.23v1.204h-4.746v3.052h4.326v1.176h-4.326v3.164h4.746v1.204h-6.23z" class="B"/><path d="M173.418 315.884v-8.596h-2.898v-1.204h7.266v1.204h-2.884v8.596h-1.484z" class="B"/><path d="M179.175 315.884v-9.8h1.484v4.2h4.746v-4.2h1.484v9.8h-1.484v-4.382h-4.746v4.382h-1.484z" class="B"/><rect width="40" height="40" rx="20" transform="matrix(1 0 .000031526 1 155.006 327.884)" fill="#f8f8f8"/><g clip-path="url(#L)"><path d="M175.004 332.884l-.201.683v19.837l.201.201 9.208-5.443-9.208-15.278z" fill="#343434"/><path d="M175.004 332.884l-9.208 15.278 9.208 5.443v-9.628-11.093z" fill="#8c8c8c"/><path d="M175.004 355.348l-.114.138v7.067l.114.331 9.213-12.976-9.213 5.44z" fill="#3c3c3b"/><path d="M175.004 362.884v-7.536l-9.208-5.44 9.208 12.976z" fill="#8c8c8c"/><path d="M175.004 353.605l9.208-5.443-9.208-4.185v9.628z" fill="#141414"/><path d="M165.796 348.162l9.208 5.443v-9.628l-9.208 4.185z" fill="#393939"/></g><use xlink:href="#X" class="D"/><use xlink:href="#Y" class="D"/><use xlink:href="#Z" class="D"/><rect x="127" y="420.916" width="96.0123" height="40" rx="20" class="I"/><path d="M159 446.42v-11.2h7.12v1.376h-5.424v3.488h4.944v1.344h-4.944v3.616h5.424v1.376H159z" class="C"/><use xlink:href="#a" class="C"/><use xlink:href="#b" class="C"/><use xlink:href="#c" class="C"/></g><g filter="url(#C)"><rect x="290" y="282.084" width="192.012" height="203.168" rx="12" class="E"/><path d="M372.455 316.052v-9.8h3.178c1.148 0 2.09.201 2.828.602.746.401 1.297.971 1.652 1.708.364.728.546 1.596.546 2.604 0 .999-.182 1.867-.546 2.604-.355.728-.906 1.293-1.652 1.694-.738.392-1.68.588-2.828.588h-3.178zm1.484-1.26h1.638c.886 0 1.586-.145 2.1-.434.522-.289.896-.705 1.12-1.246.233-.541.35-1.19.35-1.946s-.117-1.409-.35-1.96c-.224-.551-.598-.971-1.12-1.26-.514-.299-1.214-.448-2.1-.448h-1.638v7.294z" class="B"/><path d="M386.82 316.22c-.97 0-1.82-.215-2.548-.644s-1.297-1.022-1.708-1.778c-.41-.765-.616-1.647-.616-2.646s.206-1.876.616-2.632c.411-.765.98-1.363 1.708-1.792s1.578-.644 2.548-.644 1.82.215 2.548.644 1.293 1.027 1.694 1.792c.411.756.616 1.633.616 2.632s-.205 1.881-.616 2.646c-.401.756-.966 1.349-1.694 1.778s-1.577.644-2.548.644zm0-1.33c.672 0 1.256-.149 1.75-.448.504-.299.896-.728 1.176-1.288s.42-1.227.42-2.002-.14-1.442-.42-2.002-.672-.989-1.176-1.288c-.494-.299-1.078-.448-1.75-.448s-1.26.149-1.764.448-.896.728-1.176 1.288c-.27.56-.406 1.227-.406 2.002s.136 1.442.406 2.002c.28.56.672.989 1.176 1.288s1.092.448 1.764.448z" class="B"/><path d="M395.19 316.052v-8.596h-2.898v-1.204h7.266v1.204h-2.884v8.596h-1.484z" class="B"/><rect x=".50002" y=".5" width="39" height="39" rx="19.5" transform="matrix(1 0 .000031526 1 366.006 328.22)" stroke="#eee" class="E"/><g clip-path="url(#M)" class="F"><path d="M386.005 338.786c3.178 0 5.753-1.526 5.753-3.408s-2.575-3.408-5.753-3.408-5.753 1.526-5.753 3.408 2.576 3.408 5.753 3.408z"/><path d="M386.005 364.467c3.178 0 5.753-1.526 5.753-3.408s-2.575-3.409-5.753-3.409-5.753 1.526-5.753 3.409 2.576 3.408 5.753 3.408z"/><path d="M377.988 343.505c1.589-2.803 1.578-5.839-.023-6.781s-4.187.567-5.776 3.37-1.578 5.838.023 6.78 4.187-.567 5.776-3.369z"/><path d="M399.819 356.343c1.589-2.803 1.579-5.838-.021-6.779s-4.185.568-5.774 3.371-1.579 5.838.021 6.779 4.185-.568 5.774-3.371z"/><path d="M377.966 359.713c1.601-.942 1.612-3.977.023-6.78s-4.175-4.312-5.776-3.37-1.612 3.978-.023 6.781 4.175 4.311 5.776 3.369z"/><path d="M399.799 346.875c1.6-.942 1.61-3.977.021-6.78s-4.174-4.312-5.774-3.37-1.61 3.976-.021 6.779 4.174 4.312 5.774 3.371z"/></g><path d="M372.96 397.036v-2.34h-6.21v-1.836l5.904-8.424h2.61v8.262h1.656v1.998h-1.656v2.34h-2.304zm-3.744-4.338h3.888v-5.724l-3.888 5.724z" class="D"/><path d="M383.897 397.252c-1.164 0-2.16-.27-2.988-.81-.828-.552-1.47-1.314-1.926-2.286-.444-.984-.666-2.124-.666-3.42 0-1.284.222-2.418.666-3.402.456-.984 1.098-1.746 1.926-2.286.828-.552 1.824-.828 2.988-.828s2.16.276 2.988.828c.828.54 1.464 1.302 1.908 2.286.456.984.684 2.118.684 3.402 0 1.296-.228 2.436-.684 3.42-.444.972-1.08 1.734-1.908 2.286-.828.54-1.824.81-2.988.81zm0-2.07c.948 0 1.722-.396 2.322-1.188s.9-1.878.9-3.258-.3-2.466-.9-3.258-1.374-1.188-2.322-1.188c-.96 0-1.74.396-2.34 1.188-.588.792-.882 1.878-.882 3.258s.294 2.466.882 3.258c.6.792 1.38 1.188 2.34 1.188z" class="D"/><path d="M394.103 390.628c-.576 0-1.098-.126-1.566-.378-.468-.264-.84-.636-1.116-1.116s-.414-1.05-.414-1.71.138-1.23.414-1.71.648-.846 1.116-1.098c.468-.264.996-.396 1.584-.396.576 0 1.092.132 1.548.396.468.252.84.618 1.116 1.098s.414 1.05.414 1.71-.138 1.23-.414 1.71-.648.852-1.116 1.116c-.468.252-.99.378-1.566.378zm-.684 6.408l7.11-12.6h2.25l-7.11 12.6h-2.25zm.684-8.01c.348 0 .648-.132.9-.396.252-.276.378-.678.378-1.206s-.126-.93-.378-1.206c-.24-.276-.54-.414-.9-.414s-.666.138-.918.414c-.24.276-.36.678-.36 1.206s.12.93.36 1.206c.252.264.558.396.918.396zm8.064 8.226c-.576 0-1.098-.126-1.566-.378-.468-.264-.84-.636-1.116-1.116s-.414-1.05-.414-1.71.138-1.224.414-1.692c.276-.48.648-.846 1.116-1.098.468-.264.996-.396 1.584-.396.576 0 1.092.132 1.548.396.468.252.84.618 1.116 1.098.276.468.414 1.032.414 1.692s-.138 1.23-.414 1.71-.648.852-1.116 1.116c-.456.252-.978.378-1.566.378zm0-1.602c.36 0 .66-.132.9-.396.252-.276.378-.678.378-1.206s-.126-.93-.378-1.206c-.24-.276-.54-.414-.9-.414s-.666.138-.918.414c-.24.276-.36.678-.36 1.206s.12.93.36 1.206c.252.264.558.396.918.396z" class="D"/><rect x="338" y="421.252" width="96.0123" height="40" rx="20" class="I"/><path d="M370 446.756v-11.2h7.12v1.376h-5.424v3.488h4.944v1.344h-4.944v3.616h5.424v1.376H370z" class="C"/><path d="M381.925 446.948c-.672 0-1.227-.112-1.664-.336s-.763-.518-.976-.88c-.214-.374-.32-.779-.32-1.216 0-.768.298-1.376.896-1.824s1.45-.672 2.56-.672h2.08v-.144c0-.619-.171-1.083-.512-1.392-.331-.31-.763-.464-1.296-.464-.47 0-.88.117-1.232.352-.342.224-.55.56-.624 1.008h-1.696c.053-.576.245-1.067.576-1.472.341-.416.768-.731 1.28-.944.522-.224 1.093-.336 1.712-.336 1.109 0 1.968.293 2.576.88.608.576.912 1.365.912 2.368v4.88h-1.472l-.144-1.36c-.224.437-.55.805-.976 1.104s-.987.448-1.68.448zm.336-1.376c.458 0 .842-.107 1.152-.32.32-.224.565-.518.736-.88.181-.363.293-.763.336-1.2h-1.888c-.672 0-1.152.117-1.44.352-.278.234-.416.528-.416.88 0 .362.133.65.4.864.277.202.65.304 1.12.304z" class="C"/><path d="M388.334 446.756v-7.936h1.52l.144 1.504c.277-.523.661-.934 1.152-1.232.501-.31 1.104-.464 1.808-.464v1.776h-.464c-.469 0-.891.08-1.264.24-.363.149-.656.41-.88.784-.213.362-.32.869-.32 1.52v3.808h-1.696z" class="C"/><path d="M394.572 446.756v-7.936h1.504l.128 1.392c.246-.491.603-.875 1.072-1.152.48-.288 1.03-.432 1.648-.432.96 0 1.712.298 2.256.896.555.597.832 1.488.832 2.672v4.56h-1.68v-4.384c0-1.536-.629-2.304-1.888-2.304-.629 0-1.152.224-1.568.672-.405.448-.608 1.088-.608 1.92v4.096h-1.696z" class="C"/></g><g filter="url(#D)"><rect x="501" y="282.084" width="192.012" height="202.832" rx="12" class="E"/><path d="M580.292 315.884v-9.8h3.43c.765 0 1.4.131 1.904.392.504.252.877.602 1.12 1.05.252.439.378.938.378 1.498 0 .532-.121 1.022-.364 1.47-.233.439-.602.789-1.106 1.05s-1.148.392-1.932.392h-1.946v3.948h-1.484zm1.484-5.166h1.876c.7 0 1.199-.149 1.498-.448.308-.308.462-.723.462-1.246 0-.541-.154-.961-.462-1.26-.299-.308-.798-.462-1.498-.462h-1.876v3.416z" class="B"/><path d="M586.826 315.884l3.612-9.8h1.624l3.584 9.8h-1.568l-.84-2.394h-4.004l-.84 2.394h-1.568zm2.828-3.57h3.164l-1.582-4.466-1.582 4.466z" class="B"/><path d="M597.013 315.884v-9.8h3.374c.774 0 1.409.131 1.904.392.504.261.877.616 1.12 1.064.242.439.364.929.364 1.47 0 .607-.164 1.157-.49 1.652-.318.495-.817.849-1.498 1.064l2.086 4.158h-1.722l-1.904-3.948h-1.75v3.948h-1.484zm1.484-5.068h1.806c.672 0 1.162-.163 1.47-.49.317-.327.476-.751.476-1.274s-.154-.938-.462-1.246c-.308-.317-.808-.476-1.498-.476h-1.792v3.486z" class="B"/><path d="M604.9 315.884l3.612-9.8h1.624l3.584 9.8h-1.568l-.84-2.394h-4.004l-.84 2.394H604.9zm2.828-3.57h3.164l-1.582-4.466-1.582 4.466z" class="B"/><path d="M617.006 347.885c0 11.045-8.954 20-20 20s-20-8.955-20-20 8.955-20 20-20 20 8.954 20 20z" class="E"/><path d="M597.006 364.885c9.389 0 17-7.611 17-17s-7.611-17-17-17-17 7.611-17 17 7.612 17 17 17zm0 3c11.046 0 20-8.955 20-20s-8.954-20-20-20-20 8.954-20 20 8.955 20 20 20z" fill="url(#J)" class="G"/><path d="M593.647 357.885c-.906 0-1.641-.735-1.641-1.641v-14.359c0-1.105.896-2 2-2h4.641c1.436 0 2.624.24 3.564.72s1.642 1.14 2.103 1.98.692 1.783.692 2.828c0 .995-.222 1.912-.666 2.752-.445.823-1.137 1.491-2.077 2.005-.94.498-2.146.746-3.616.746h-2.359c-.552 0-1 .448-1 1v4.328c0 .906-.734 1.641-1.641 1.641zm1.641-10.643c0 .552.448 1 1 1h2.154c1.146 0 1.966-.249 2.462-.746.513-.514.769-1.208.769-2.083 0-.891-.256-1.585-.769-2.083-.496-.514-1.316-.771-2.462-.771h-2.154c-.552 0-1 .448-1 1v3.683z" class="H"/><path d="M578.49 396.7v-1.674l2.232-1.89c.732-.624 1.38-1.242 1.944-1.854.576-.612 1.032-1.206 1.368-1.782.348-.588.522-1.158.522-1.71 0-.516-.144-.972-.432-1.368-.276-.396-.738-.594-1.386-.594-.66 0-1.158.216-1.494.648s-.504.954-.504 1.566h-2.232c.024-.924.228-1.692.612-2.304.384-.624.894-1.086 1.53-1.386.636-.312 1.35-.468 2.142-.468 1.284 0 2.28.354 2.988 1.062.72.696 1.08 1.602 1.08 2.718 0 .696-.162 1.374-.486 2.034-.312.66-.726 1.296-1.242 1.908s-1.074 1.188-1.674 1.728l-1.746 1.476h5.454v1.89h-8.676z" class="D"/><path d="M594.158 396.916c-1.164 0-2.16-.27-2.988-.81-.828-.552-1.47-1.314-1.926-2.286-.444-.984-.666-2.124-.666-3.42 0-1.284.222-2.418.666-3.402.456-.984 1.098-1.746 1.926-2.286.828-.552 1.824-.828 2.988-.828s2.16.276 2.988.828c.828.54 1.464 1.302 1.908 2.286.456.984.684 2.118.684 3.402 0 1.296-.228 2.436-.684 3.42-.444.972-1.08 1.734-1.908 2.286-.828.54-1.824.81-2.988.81zm0-2.07c.948 0 1.722-.396 2.322-1.188s.9-1.878.9-3.258-.3-2.466-.9-3.258-1.374-1.188-2.322-1.188c-.96 0-1.74.396-2.34 1.188-.588.792-.882 1.878-.882 3.258s.294 2.466.882 3.258c.6.792 1.38 1.188 2.34 1.188z" class="D"/><path d="M604.363 390.292c-.576 0-1.098-.126-1.566-.378-.468-.264-.84-.636-1.116-1.116s-.414-1.05-.414-1.71.138-1.23.414-1.71.648-.846 1.116-1.098c.468-.264.996-.396 1.584-.396.576 0 1.092.132 1.548.396.468.252.84.618 1.116 1.098s.414 1.05.414 1.71-.138 1.23-.414 1.71-.648.852-1.116 1.116c-.468.252-.99.378-1.566.378zm-.684 6.408l7.11-12.6h2.25l-7.11 12.6h-2.25zm.684-8.01c.348 0 .648-.132.9-.396.252-.276.378-.678.378-1.206s-.126-.93-.378-1.206c-.24-.276-.54-.414-.9-.414s-.666.138-.918.414c-.24.276-.36.678-.36 1.206s.12.93.36 1.206c.252.264.558.396.918.396zm8.064 8.226c-.576 0-1.098-.126-1.566-.378-.468-.264-.84-.636-1.116-1.116s-.414-1.05-.414-1.71.138-1.224.414-1.692c.276-.48.648-.846 1.116-1.098.468-.264.996-.396 1.584-.396.576 0 1.092.132 1.548.396.468.252.84.618 1.116 1.098.276.468.414 1.032.414 1.692s-.138 1.23-.414 1.71-.648.852-1.116 1.116c-.456.252-.978.378-1.566.378zm0-1.602c.36 0 .66-.132.9-.396.252-.276.378-.678.378-1.206s-.126-.93-.378-1.206c-.24-.276-.54-.414-.9-.414s-.666.138-.918.414c-.24.276-.36.678-.36 1.206s.12.93.36 1.206c.252.264.558.396.918.396z" class="D"/><rect x="549" y="420.916" width="96.0123" height="40" rx="20" class="I"/><path d="M581 446.42v-11.2h7.12v1.376h-5.424v3.488h4.944v1.344h-4.944v3.616h5.424v1.376H581z" class="C"/><path d="M592.925 446.612c-.672 0-1.227-.112-1.664-.336s-.763-.518-.976-.88c-.214-.374-.32-.779-.32-1.216 0-.768.298-1.376.896-1.824s1.45-.672 2.56-.672h2.08v-.144c0-.619-.171-1.083-.512-1.392-.331-.31-.763-.464-1.296-.464-.47 0-.88.117-1.232.352-.342.224-.55.56-.624 1.008h-1.696c.053-.576.245-1.067.576-1.472.341-.416.768-.731 1.28-.944.522-.224 1.093-.336 1.712-.336 1.109 0 1.968.293 2.576.88.608.576.912 1.365.912 2.368v4.88h-1.472l-.144-1.36c-.224.437-.55.805-.976 1.104s-.987.448-1.68.448zm.336-1.376c.458 0 .842-.107 1.152-.32.32-.224.565-.518.736-.88.181-.363.293-.763.336-1.2h-1.888c-.672 0-1.152.117-1.44.352-.278.234-.416.528-.416.88 0 .362.133.65.4.864.277.202.65.304 1.12.304z" class="C"/><path d="M599.334 446.42v-7.936h1.52l.144 1.504c.277-.523.661-.934 1.152-1.232.501-.31 1.104-.464 1.808-.464v1.776h-.464c-.469 0-.891.08-1.264.24-.363.149-.656.41-.88.784-.213.362-.32.869-.32 1.52v3.808h-1.696z" class="C"/><path d="M605.572 446.42v-7.936h1.504l.128 1.392c.246-.491.603-.875 1.072-1.152.48-.288 1.03-.432 1.648-.432.96 0 1.712.298 2.256.896.555.597.832 1.488.832 2.672v4.56h-1.68v-4.384c0-1.536-.629-2.304-1.888-2.304-.629 0-1.152.224-1.568.672-.405.448-.608 1.088-.608 1.92v4.096h-1.696z" class="C"/></g></g><defs><filter id="B" x="63" y="266.084" width="224.012" height="234.832" filterUnits="userSpaceOnUse" class="J"><feFlood result="A" class="K"/><feColorMatrix in="SourceAlpha" values="0 0 0 0 0 0 0 0 0 0 0 0 0 0 0 0 0 0 127 0" result="B"/><feOffset/><feGaussianBlur stdDeviation="8"/><feComposite in2="B" operator="out"/><feColorMatrix values="0 0 0 0 0.227451 0 0 0 0 0.305882 0 0 0 0 0.345098 0 0 0 0.05 0"/><feBlend in2="A"/><feBlend in="SourceGraphic"/></filter><filter id="C" x="274" y="266.084" width="224.012" height="235.168" filterUnits="userSpaceOnUse" class="J"><feFlood result="A" class="K"/><feColorMatrix in="SourceAlpha" values="0 0 0 0 0 0 0 0 0 0 0 0 0 0 0 0 0 0 127 0" result="B"/><feOffset/><feGaussianBlur stdDeviation="8"/><feComposite in2="B" operator="out"/><feColorMatrix values="0 0 0 0 0.227451 0 0 0 0 0.305882 0 0 0 0 0.345098 0 0 0 0.05 0"/><feBlend in2="A"/><feBlend in="SourceGraphic"/></filter><filter id="D" x="485" y="266.084" width="224.012" height="234.832" filterUnits="userSpaceOnUse" class="J"><feFlood result="A" class="K"/><feColorMatrix in="SourceAlpha" values="0 0 0 0 0 0 0 0 0 0 0 0 0 0 0 0 0 0 127 0" result="B"/><feOffset/><feGaussianBlur stdDeviation="8"/><feComposite in2="B" operator="out"/><feColorMatrix values="0 0 0 0 0.227451 0 0 0 0 0.305882 0 0 0 0 0.345098 0 0 0 0.05 0"/><feBlend in2="A"/><feBlend in="SourceGraphic"/></filter><linearGradient id="E" x1="635.879" y1="255.599" x2=".14467" y2="255.599" xlink:href="#d"><stop stop-color="#fff6d9"/><stop offset=".48958" stop-color="#ffc9c9"/><stop offset="1" stop-color="#ffd9f3"/></linearGradient><linearGradient id="F" x1="675.879" y1="215.599" x2="40.1447" y2="215.599" xlink:href="#d"><stop stop-color="#fff6d9"/><stop offset=".48958" stop-color="#ffc9c9"/><stop offset="1" stop-color="#ffd9f3"/></linearGradient><linearGradient id="G" x1="40" y1="0" x2="553.278" y2="635.288" xlink:href="#d"><stop stop-color="#d9f3ff"/><stop offset=".50521" stop-color="#cad6ff"/><stop offset="1" stop-color="#e6dbff"/></linearGradient><linearGradient id="H" x1="358.5" y1="-495.196" x2="359.48" y2="244.003" xlink:href="#d"><stop stop-color="#5b12f8"/><stop offset="1" stop-color="#0c3ee3" stop-opacity="0"/></linearGradient><linearGradient id="I" x1="639.663" y1="233.124" x2="76.5" y2="233.124" xlink:href="#d"><stop stop-color="#5a11f8"/><stop offset="1" stop-color="#58c6f5"/></linearGradient><linearGradient id="J" x1="614.565" y1="333.178" x2="581.206" y2="361.615" xlink:href="#d"><stop stop-color="#07daff"/><stop offset=".33197" stop-color="#f9c778"/><stop offset=".71562" stop-color="#f029a7"/><stop offset="1" stop-color="#501bf2"/></linearGradient><clipPath id="K"><path transform="translate(75 278.084)" d="M0 0h564v228H0z" class="E"/></clipPath><clipPath id="L"><path transform="translate(160.006 332.884)" d="M0 0h30v30H0z" class="E"/></clipPath><clipPath id="M"><path transform="translate(371.006 331.97)" d="M0 0h30v32.5H0z" class="E"/></clipPath><path id="N" d="M105.821 52.712c-.757 0-1.44-.1707-2.048-.512-.597-.352-1.072-.8373-1.424-1.456-.352-.6293-.528-1.36-.528-2.192s.176-1.5573.528-2.176c.363-.6293.848-1.1147 1.456-1.456.608-.352 1.285-.528 2.032-.528.757 0 1.435.176 2.032.528.608.3413 1.088.8267 1.44 1.456.363.6187.544 1.344.544 2.176s-.181 1.5627-.544 2.192c-.352.6187-.832 1.104-1.44 1.456-.608.3413-1.291.512-2.048.512zm0-1.456c.405 0 .779-.1013 1.12-.304.352-.2027.635-.5013.848-.896.213-.4053.32-.9067.32-1.504s-.107-1.0933-.32-1.488c-.203-.4053-.48-.7093-.832-.912-.341-.2027-.715-.304-1.12-.304s-.784.1013-1.136.304c-.341.2027-.619.5067-.832.912-.213.3947-.32.8907-.32 1.488s.107 1.0987.32 1.504c.213.3947.491.6933.832.896s.715.304 1.12.304z"/><path id="O" d="M217.859 52.52c-.779 0-1.397-.1867-1.856-.56-.459-.384-.688-1.0613-.688-2.032v-3.92h-1.36v-1.424h1.36l.208-2.016h1.488v2.016h2.24v1.424h-2.24v3.92c0 .4373.091.7413.272.912.192.16.517.24.976.24h.912v1.44h-1.312z"/><path id="P" d="M122.121 88.0079c-1.552 0-2.88-.36-3.984-1.08-1.104-.736-1.96-1.752-2.568-3.048-.592-1.312-.888-2.832-.888-4.56 0-1.712.296-3.224.888-4.536.608-1.312 1.464-2.328 2.568-3.048 1.104-.736 2.432-1.104 3.984-1.104s2.88.368 3.984 1.104c1.104.72 1.952 1.736 2.544 3.048.608 1.312.912 2.824.912 4.536 0 1.728-.304 3.248-.912 4.56-.592 1.296-1.44 2.312-2.544 3.048-1.104.72-2.432 1.08-3.984 1.08zm0-2.76c1.264 0 2.296-.528 3.096-1.584s1.2-2.504 1.2-4.344-.4-3.288-1.2-4.344-1.832-1.584-3.096-1.584c-1.28 0-2.32.528-3.12 1.584-.784 1.056-1.176 2.504-1.176 4.344s.392 3.288 1.176 4.344c.8 1.056 1.84 1.584 3.12 1.584z"/><path id="Q" d="M143.028 88.0079c-1.152 0-2.192-.2-3.12-.6-.928-.416-1.672-1-2.232-1.752-.544-.752-.816-1.624-.816-2.616 0-1.024.264-1.92.792-2.688.544-.768 1.256-1.32 2.136-1.656-.768-.336-1.376-.816-1.824-1.44-.448-.64-.672-1.352-.672-2.136 0-.8.216-1.536.648-2.208.432-.688 1.072-1.24 1.92-1.656.864-.416 1.92-.624 3.168-.624s2.296.208 3.144.624 1.488.968 1.92 1.656c.432.672.648 1.408.648 2.208 0 .768-.232 1.48-.696 2.136-.448.64-1.048 1.12-1.8 1.44.896.336 1.608.888 2.136 1.656s.792 1.664.792 2.688c0 .992-.272 1.864-.816 2.616s-1.288 1.336-2.232 1.752c-.928.4-1.96.6-3.096.6zm0-10.224c.832 0 1.488-.216 1.968-.648s.72-.984.72-1.656c0-.736-.24-1.312-.72-1.728-.464-.416-1.12-.624-1.968-.624-.864 0-1.528.208-1.992.624s-.696.992-.696 1.728c0 .688.232 1.248.696 1.68.48.416 1.144.624 1.992.624zm0 7.656c1.024 0 1.8-.248 2.328-.744.528-.512.792-1.152.792-1.92 0-.848-.28-1.512-.84-1.992-.544-.48-1.304-.72-2.28-.72s-1.752.24-2.328.72c-.56.48-.84 1.144-.84 1.992 0 .768.264 1.408.792 1.92.544.496 1.336.744 2.376.744z"/><path id="R" d="M183.629 87.8879c-.56 0-1.024-.176-1.392-.528-.352-.352-.528-.776-.528-1.272 0-.512.176-.944.528-1.296.368-.352.832-.528 1.392-.528s1.016.176 1.368.528c.368.352.552.784.552 1.296 0 .496-.184.92-.552 1.272-.352.352-.808.528-1.368.528z"/><path id="S" d="M195.827 87.7199v-3.12h-8.28v-2.448l7.872-11.232h3.48v11.016h2.208v2.664h-2.208v3.12h-3.072zm-4.992-5.784h5.184v-7.632l-5.184 7.632z"/><path id="T" d="M203.114 87.7199v-2.232l2.976-2.52c.976-.832 1.84-1.656 2.592-2.472.768-.816 1.376-1.608 1.824-2.376.464-.784.696-1.544.696-2.28 0-.688-.192-1.296-.576-1.824-.368-.528-.984-.792-1.848-.792-.88 0-1.544.288-1.992.864s-.672 1.272-.672 2.088h-2.976c.032-1.232.304-2.256.816-3.072.512-.832 1.192-1.448 2.04-1.848.848-.416 1.8-.624 2.856-.624 1.712 0 3.04.472 3.984 1.416.96.928 1.44 2.136 1.44 3.624 0 .928-.216 1.832-.648 2.712-.416.88-.968 1.728-1.656 2.544s-1.432 1.584-2.232 2.304l-2.328 1.968h7.272v2.52h-11.568z"/><path id="U" d="M228.783 78.8584c.392-.6185 1.295-.6185 1.688 0l2.943 4.6347c.423.6658-.055 1.5361-.844 1.5361h-5.887c-.788 0-1.267-.8703-.844-1.5361l2.944-4.6347z"/><path id="V" d="M400.891 52.712c-.672 0-1.227-.112-1.664-.336s-.763-.5173-.976-.88c-.214-.3733-.32-.7787-.32-1.216 0-.768.298-1.376.896-1.824s1.45-.672 2.56-.672h2.08v-.144c0-.6187-.171-1.0827-.512-1.392-.331-.3093-.763-.464-1.296-.464-.47 0-.88.1173-1.232.352-.342.224-.55.56-.624 1.008h-1.696c.053-.576.245-1.0667.576-1.472.341-.416.768-.7307 1.28-.944.522-.224 1.093-.336 1.712-.336 1.109 0 1.968.2933 2.576.88.608.576.912 1.3653.912 2.368v4.88h-1.472l-.144-1.36c-.224.4373-.55.8053-.976 1.104s-.987.448-1.68.448zm.336-1.376c.458 0 .842-.1067 1.152-.32.32-.224.565-.5173.736-.88.181-.3627.293-.7627.336-1.2h-1.888c-.672 0-1.152.1173-1.44.352-.278.2347-.416.528-.416.88 0 .3627.133.6507.4.864.277.2027.65.304 1.12.304z"/><path id="W" d="M490.69 259.004v-.826l1.876-1.582c.597-.541 1.124-1.073 1.582-1.596.466-.523.83-1.036 1.092-1.54.27-.504.406-.989.406-1.456 0-.345-.061-.667-.182-.966-.112-.299-.299-.537-.56-.714-.262-.187-.616-.28-1.064-.28-.43 0-.789.098-1.078.294-.29.187-.509.439-.658.756-.14.317-.21.658-.21 1.022h-1.134c0-.644.135-1.195.406-1.652.27-.467.639-.821 1.106-1.064s.994-.364 1.582-.364c.868 0 1.577.247 2.128.742.56.485.84 1.213.84 2.184 0 .579-.145 1.153-.434 1.722-.29.56-.658 1.106-1.106 1.638a15.2778 15.2778 0 0 1-1.442 1.47l-1.414 1.232h4.732v.98h-6.468z"/><path id="X" d="M156.49 396.7v-1.674l2.232-1.89c.732-.624 1.38-1.242 1.944-1.854.576-.612 1.032-1.206 1.368-1.782.348-.588.522-1.158.522-1.71 0-.516-.144-.972-.432-1.368-.276-.396-.738-.594-1.386-.594-.66 0-1.158.216-1.494.648s-.504.954-.504 1.566h-2.232c.024-.924.228-1.692.612-2.304.384-.624.894-1.086 1.53-1.386.636-.312 1.35-.468 2.142-.468 1.284 0 2.28.354 2.988 1.062.72.696 1.08 1.602 1.08 2.718 0 .696-.162 1.374-.486 2.034-.312.66-.726 1.296-1.242 1.908s-1.074 1.188-1.674 1.728l-1.746 1.476h5.454v1.89h-8.676z"/><path id="Y" d="M172.158 396.916c-1.164 0-2.16-.27-2.988-.81-.828-.552-1.47-1.314-1.926-2.286-.444-.984-.666-2.124-.666-3.42 0-1.284.222-2.418.666-3.402.456-.984 1.098-1.746 1.926-2.286.828-.552 1.824-.828 2.988-.828s2.16.276 2.988.828c.828.54 1.464 1.302 1.908 2.286.456.984.684 2.118.684 3.402 0 1.296-.228 2.436-.684 3.42-.444.972-1.08 1.734-1.908 2.286-.828.54-1.824.81-2.988.81zm0-2.07c.948 0 1.722-.396 2.322-1.188s.9-1.878.9-3.258-.3-2.466-.9-3.258-1.374-1.188-2.322-1.188c-.96 0-1.74.396-2.34 1.188-.588.792-.882 1.878-.882 3.258s.294 2.466.882 3.258c.6.792 1.38 1.188 2.34 1.188z"/><path id="Z" d="M182.363 390.292c-.576 0-1.098-.126-1.566-.378-.468-.264-.84-.636-1.116-1.116s-.414-1.05-.414-1.71.138-1.23.414-1.71.648-.846 1.116-1.098c.468-.264.996-.396 1.584-.396.576 0 1.092.132 1.548.396.468.252.84.618 1.116 1.098s.414 1.05.414 1.71-.138 1.23-.414 1.71-.648.852-1.116 1.116c-.468.252-.99.378-1.566.378zm-.684 6.408l7.11-12.6h2.25l-7.11 12.6h-2.25zm.684-8.01c.348 0 .648-.132.9-.396.252-.276.378-.678.378-1.206s-.126-.93-.378-1.206c-.24-.276-.54-.414-.9-.414s-.666.138-.918.414c-.24.276-.36.678-.36 1.206s.12.93.36 1.206c.252.264.558.396.918.396zm8.064 8.226c-.576 0-1.098-.126-1.566-.378-.468-.264-.84-.636-1.116-1.116s-.414-1.05-.414-1.71.138-1.224.414-1.692c.276-.48.648-.846 1.116-1.098.468-.264.996-.396 1.584-.396.576 0 1.092.132 1.548.396.468.252.84.618 1.116 1.098.276.468.414 1.032.414 1.692s-.138 1.23-.414 1.71-.648.852-1.116 1.116c-.456.252-.978.378-1.566.378zm0-1.602c.36 0 .66-.132.9-.396.252-.276.378-.678.378-1.206s-.126-.93-.378-1.206c-.24-.276-.54-.414-.9-.414s-.666.138-.918.414c-.24.276-.36.678-.36 1.206s.12.93.36 1.206c.252.264.558.396.918.396z"/><path id="a" d="M170.925 446.612c-.672 0-1.227-.112-1.664-.336s-.763-.518-.976-.88c-.214-.374-.32-.779-.32-1.216 0-.768.298-1.376.896-1.824s1.45-.672 2.56-.672h2.08v-.144c0-.619-.171-1.083-.512-1.392-.331-.31-.763-.464-1.296-.464-.47 0-.88.117-1.232.352-.342.224-.55.56-.624 1.008h-1.696c.053-.576.245-1.067.576-1.472.341-.416.768-.731 1.28-.944.522-.224 1.093-.336 1.712-.336 1.109 0 1.968.293 2.576.88.608.576.912 1.365.912 2.368v4.88h-1.472l-.144-1.36c-.224.437-.55.805-.976 1.104s-.987.448-1.68.448zm.336-1.376c.458 0 .842-.107 1.152-.32.32-.224.565-.518.736-.88.181-.363.293-.763.336-1.2h-1.888c-.672 0-1.152.117-1.44.352-.278.234-.416.528-.416.88 0 .362.133.65.4.864.277.202.65.304 1.12.304z"/><path id="b" d="M177.334 446.42v-7.936h1.52l.144 1.504c.277-.523.661-.934 1.152-1.232.501-.31 1.104-.464 1.808-.464v1.776h-.464c-.469 0-.891.08-1.264.24-.363.149-.656.41-.88.784-.213.362-.32.869-.32 1.52v3.808h-1.696z"/><path id="c" d="M183.572 446.42v-7.936h1.504l.128 1.392c.246-.491.603-.875 1.072-1.152.48-.288 1.03-.432 1.648-.432.96 0 1.712.298 2.256.896.555.597.832 1.488.832 2.672v4.56h-1.68v-4.384c0-1.536-.629-2.304-1.888-2.304-.629 0-1.152.224-1.568.672-.405.448-.608 1.088-.608 1.92v4.096h-1.696z"/><linearGradient id="d" gradientUnits="userSpaceOnUse"/></defs></svg>